<mxfile host="app.diagrams.net" agent="Mozilla/5.0 (Windows NT 10.0; Win64; x64) AppleWebKit/537.36 (KHTML, like Gecko) Chrome/132.0.0.0 YaBrowser/25.2.0.0 Safari/537.36" version="26.0.13">
  <diagram name="Страница — 1" id="f4Wf9Rq9JbERo32JdSKV">
    <mxGraphModel dx="3172" dy="1031" grid="1" gridSize="10" guides="1" tooltips="1" connect="1" arrows="1" fold="1" page="1" pageScale="1" pageWidth="827" pageHeight="1169" math="0" shadow="0">
      <root>
        <mxCell id="0" />
        <mxCell id="1" parent="0" />
        <mxCell id="97N-wIbMj6tB275m0_wd-4" value="" style="rounded=1;whiteSpace=wrap;html=1;" parent="1" vertex="1">
          <mxGeometry x="160" y="110" width="300" height="120" as="geometry" />
        </mxCell>
        <mxCell id="97N-wIbMj6tB275m0_wd-1" value="" style="shape=cylinder3;whiteSpace=wrap;html=1;boundedLbl=1;backgroundOutline=1;size=15;" parent="1" vertex="1">
          <mxGeometry x="170" y="130" width="60" height="80" as="geometry" />
        </mxCell>
        <mxCell id="97N-wIbMj6tB275m0_wd-2" value="" style="shape=cylinder3;whiteSpace=wrap;html=1;boundedLbl=1;backgroundOutline=1;size=15;" parent="1" vertex="1">
          <mxGeometry x="280" y="130" width="60" height="80" as="geometry" />
        </mxCell>
        <mxCell id="97N-wIbMj6tB275m0_wd-3" value="" style="shape=cylinder3;whiteSpace=wrap;html=1;boundedLbl=1;backgroundOutline=1;size=15;" parent="1" vertex="1">
          <mxGeometry x="384" y="130" width="60" height="80" as="geometry" />
        </mxCell>
        <mxCell id="97N-wIbMj6tB275m0_wd-5" value="" style="shape=cylinder3;whiteSpace=wrap;html=1;boundedLbl=1;backgroundOutline=1;size=15;" parent="1" vertex="1">
          <mxGeometry x="260" y="310" width="100" height="100" as="geometry" />
        </mxCell>
        <mxCell id="97N-wIbMj6tB275m0_wd-6" value="" style="endArrow=none;html=1;rounded=0;exitX=0.5;exitY=0;exitDx=0;exitDy=0;exitPerimeter=0;" parent="1" source="97N-wIbMj6tB275m0_wd-5" edge="1">
          <mxGeometry width="50" height="50" relative="1" as="geometry">
            <mxPoint x="500" y="250" as="sourcePoint" />
            <mxPoint x="310" y="230" as="targetPoint" />
          </mxGeometry>
        </mxCell>
        <mxCell id="97N-wIbMj6tB275m0_wd-7" value="" style="shape=cylinder3;whiteSpace=wrap;html=1;boundedLbl=1;backgroundOutline=1;size=15;" parent="1" vertex="1">
          <mxGeometry x="270" y="510" width="80" height="80" as="geometry" />
        </mxCell>
        <mxCell id="97N-wIbMj6tB275m0_wd-8" value="" style="endArrow=classic;html=1;rounded=0;" parent="1" edge="1">
          <mxGeometry width="50" height="50" relative="1" as="geometry">
            <mxPoint x="260" y="500" as="sourcePoint" />
            <mxPoint x="260" y="420" as="targetPoint" />
          </mxGeometry>
        </mxCell>
        <mxCell id="97N-wIbMj6tB275m0_wd-9" value="" style="endArrow=classic;html=1;rounded=0;" parent="1" edge="1">
          <mxGeometry width="50" height="50" relative="1" as="geometry">
            <mxPoint x="360" y="425" as="sourcePoint" />
            <mxPoint x="360" y="505" as="targetPoint" />
          </mxGeometry>
        </mxCell>
        <mxCell id="97N-wIbMj6tB275m0_wd-10" value="&lt;div&gt;&lt;span style=&quot;font-size:12.0pt;line-height:115%;&lt;br/&gt;font-family:&amp;quot;Calibri&amp;quot;,sans-serif;mso-ascii-theme-font:minor-latin;mso-fareast-font-family:&lt;br/&gt;Calibri;mso-fareast-theme-font:minor-latin;mso-hansi-theme-font:minor-latin;&lt;br/&gt;mso-bidi-font-family:&amp;quot;Times New Roman&amp;quot;;mso-bidi-theme-font:minor-bidi;&lt;br/&gt;mso-ansi-language:RU;mso-fareast-language:EN-US;mso-bidi-language:AR-SA&quot;&gt;&lt;span style=&quot;font-family: Calibri, sans-serif; font-size: 12pt; background-color: initial;&quot;&gt;Проверка&lt;br&gt;занятости аудитории и преподавателя&lt;/span&gt;,&amp;nbsp;&lt;/span&gt;&lt;span style=&quot;font-family: Calibri, sans-serif; font-size: 12pt; background-color: initial;&quot;&gt;Возможность&lt;br&gt;поставить потоковую лекцию,&amp;nbsp;&lt;/span&gt;&lt;span style=&quot;font-family: Calibri, sans-serif; font-size: 12pt; background-color: initial;&quot;&gt;Составление&lt;br&gt;расписание на группу на неделю (CRUD),&amp;nbsp;&lt;/span&gt;&lt;span style=&quot;font-family: Calibri, sans-serif; font-size: 12pt; background-color: initial;&quot;&gt;Ведение&lt;br&gt;аудиторий с проверкой типов аудитории для занятия,&lt;/span&gt;&lt;/div&gt;&lt;div&gt;&lt;span style=&quot;font-size: 12pt; line-height: 18.4px;&quot;&gt;Автоматическое&lt;br&gt;составление расписания,&amp;nbsp;&lt;/span&gt;&lt;span style=&quot;font-size: 12pt; line-height: 18.4px;&quot;&gt;Ведение&lt;br&gt;преподавателей и ограничение по времени проведения занятий,&amp;nbsp;&lt;/span&gt;&lt;span style=&quot;font-size: 12pt; line-height: 18.4px;&quot;&gt;Ведение&lt;br&gt;групп, направлений, факультетов,&amp;nbsp;&lt;/span&gt;&lt;span style=&quot;font-size: 16px; background-color: transparent; color: light-dark(rgb(0, 0, 0), rgb(255, 255, 255));&quot;&gt;Формирование&lt;/span&gt;&lt;/div&gt;&lt;span style=&quot;font-size: 16px;&quot;&gt;печатной версии расписания, Вывод расписания&lt;/span&gt;&lt;div&gt;&lt;span style=&quot;font-size: 16px;&quot;&gt;&lt;br&gt;&lt;/span&gt;&lt;/div&gt;" style="rounded=1;whiteSpace=wrap;html=1;" parent="1" vertex="1">
          <mxGeometry x="-20" y="640" width="235" height="400" as="geometry" />
        </mxCell>
        <mxCell id="97N-wIbMj6tB275m0_wd-11" value="" style="endArrow=classic;html=1;rounded=0;" parent="1" edge="1">
          <mxGeometry width="50" height="50" relative="1" as="geometry">
            <mxPoint x="260" y="625" as="sourcePoint" />
            <mxPoint x="260" y="545" as="targetPoint" />
          </mxGeometry>
        </mxCell>
        <mxCell id="97N-wIbMj6tB275m0_wd-12" value="" style="endArrow=classic;html=1;rounded=0;" parent="1" edge="1">
          <mxGeometry width="50" height="50" relative="1" as="geometry">
            <mxPoint x="360" y="560" as="sourcePoint" />
            <mxPoint x="360" y="640" as="targetPoint" />
          </mxGeometry>
        </mxCell>
        <mxCell id="97N-wIbMj6tB275m0_wd-13" value="Бд1" style="text;html=1;align=center;verticalAlign=middle;whiteSpace=wrap;rounded=0;" parent="1" vertex="1">
          <mxGeometry x="170" y="170" width="60" height="30" as="geometry" />
        </mxCell>
        <mxCell id="97N-wIbMj6tB275m0_wd-14" value="Бд2" style="text;html=1;align=center;verticalAlign=middle;whiteSpace=wrap;rounded=0;" parent="1" vertex="1">
          <mxGeometry x="280" y="170" width="60" height="30" as="geometry" />
        </mxCell>
        <mxCell id="97N-wIbMj6tB275m0_wd-15" value="БдN" style="text;html=1;align=center;verticalAlign=middle;whiteSpace=wrap;rounded=0;" parent="1" vertex="1">
          <mxGeometry x="384" y="170" width="60" height="30" as="geometry" />
        </mxCell>
        <mxCell id="97N-wIbMj6tB275m0_wd-16" value="Клиент БД" style="text;html=1;align=center;verticalAlign=middle;whiteSpace=wrap;rounded=0;" parent="1" vertex="1">
          <mxGeometry x="280" y="360" width="60" height="30" as="geometry" />
        </mxCell>
        <mxCell id="97N-wIbMj6tB275m0_wd-17" value="Qery" style="text;strokeColor=none;fillColor=none;align=left;verticalAlign=middle;spacingLeft=4;spacingRight=4;overflow=hidden;points=[[0,0.5],[1,0.5]];portConstraint=eastwest;rotatable=0;whiteSpace=wrap;html=1;" parent="1" vertex="1">
          <mxGeometry x="180" y="450" width="80" height="30" as="geometry" />
        </mxCell>
        <mxCell id="97N-wIbMj6tB275m0_wd-18" value="Result" style="text;strokeColor=none;fillColor=none;align=left;verticalAlign=middle;spacingLeft=4;spacingRight=4;overflow=hidden;points=[[0,0.5],[1,0.5]];portConstraint=eastwest;rotatable=0;whiteSpace=wrap;html=1;" parent="1" vertex="1">
          <mxGeometry x="364" y="450" width="80" height="30" as="geometry" />
        </mxCell>
        <mxCell id="97N-wIbMj6tB275m0_wd-19" value="Web-Server" style="text;strokeColor=none;fillColor=none;align=left;verticalAlign=middle;spacingLeft=4;spacingRight=4;overflow=hidden;points=[[0,0.5],[1,0.5]];portConstraint=eastwest;rotatable=0;whiteSpace=wrap;html=1;" parent="1" vertex="1">
          <mxGeometry x="270" y="540" width="80" height="40" as="geometry" />
        </mxCell>
        <mxCell id="97N-wIbMj6tB275m0_wd-20" value="HTTP + Json" style="text;strokeColor=none;fillColor=none;align=left;verticalAlign=middle;spacingLeft=4;spacingRight=4;overflow=hidden;points=[[0,0.5],[1,0.5]];portConstraint=eastwest;rotatable=0;whiteSpace=wrap;html=1;" parent="1" vertex="1">
          <mxGeometry x="270" y="600" width="86" height="30" as="geometry" />
        </mxCell>
        <mxCell id="97N-wIbMj6tB275m0_wd-21" value="&lt;span style=&quot;font-size:12.0pt;line-height:115%;&lt;br/&gt;font-family:&amp;quot;Calibri&amp;quot;,sans-serif;mso-ascii-theme-font:minor-latin;mso-fareast-font-family:&lt;br/&gt;Calibri;mso-fareast-theme-font:minor-latin;mso-hansi-theme-font:minor-latin;&lt;br/&gt;mso-bidi-font-family:&amp;quot;Times New Roman&amp;quot;;mso-bidi-theme-font:minor-bidi;&lt;br/&gt;mso-ansi-language:RU;mso-fareast-language:EN-US;mso-bidi-language:AR-SA&quot;&gt;Автоматическое&lt;br&gt;составление расписания,&amp;nbsp;&lt;/span&gt;&lt;span style=&quot;font-size:12.0pt;line-height:115%;&lt;br/&gt;font-family:&amp;quot;Calibri&amp;quot;,sans-serif;mso-ascii-theme-font:minor-latin;mso-fareast-font-family:&lt;br/&gt;Calibri;mso-fareast-theme-font:minor-latin;mso-hansi-theme-font:minor-latin;&lt;br/&gt;mso-bidi-font-family:&amp;quot;Times New Roman&amp;quot;;mso-bidi-theme-font:minor-bidi;&lt;br/&gt;mso-ansi-language:RU;mso-fareast-language:EN-US;mso-bidi-language:AR-SA&quot;&gt;Ведение&lt;br/&gt;преподавателей и ограничение по времени проведения занятий,&amp;nbsp;&lt;/span&gt;&lt;span style=&quot;font-size:12.0pt;line-height:115%;&lt;br/&gt;font-family:&amp;quot;Calibri&amp;quot;,sans-serif;mso-ascii-theme-font:minor-latin;mso-fareast-font-family:&lt;br/&gt;Calibri;mso-fareast-theme-font:minor-latin;mso-hansi-theme-font:minor-latin;&lt;br/&gt;mso-bidi-font-family:&amp;quot;Times New Roman&amp;quot;;mso-bidi-theme-font:minor-bidi;&lt;br/&gt;mso-ansi-language:RU;mso-fareast-language:EN-US;mso-bidi-language:AR-SA&quot;&gt;Ведение&lt;br/&gt;групп, направлений, факультетов&lt;/span&gt;" style="rounded=1;whiteSpace=wrap;html=1;" parent="1" vertex="1">
          <mxGeometry x="234" y="650" width="210" height="180" as="geometry" />
        </mxCell>
        <mxCell id="97N-wIbMj6tB275m0_wd-24" value="&lt;span style=&quot;font-size: 16px;&quot;&gt;Формирование&lt;/span&gt;&lt;br style=&quot;font-size: 16px;&quot;&gt;&lt;span style=&quot;font-size: 16px;&quot;&gt;печатной версии расписания, Вывод расписания&lt;/span&gt;&lt;div&gt;&lt;span style=&quot;font-size: 16px;&quot;&gt;&lt;br&gt;&lt;/span&gt;&lt;/div&gt;" style="rounded=1;whiteSpace=wrap;html=1;" parent="1" vertex="1">
          <mxGeometry x="460" y="640" width="210" height="100" as="geometry" />
        </mxCell>
        <mxCell id="97N-wIbMj6tB275m0_wd-25" value="Web-app" style="text;strokeColor=none;fillColor=none;align=left;verticalAlign=middle;spacingLeft=4;spacingRight=4;overflow=hidden;points=[[0,0.5],[1,0.5]];portConstraint=eastwest;rotatable=0;whiteSpace=wrap;html=1;" parent="1" vertex="1">
          <mxGeometry x="57.5" y="1040" width="80" height="30" as="geometry" />
        </mxCell>
        <mxCell id="97N-wIbMj6tB275m0_wd-26" value="Консоль" style="text;strokeColor=none;fillColor=none;align=left;verticalAlign=middle;spacingLeft=4;spacingRight=4;overflow=hidden;points=[[0,0.5],[1,0.5]];portConstraint=eastwest;rotatable=0;whiteSpace=wrap;html=1;" parent="1" vertex="1">
          <mxGeometry x="305" y="830" width="80" height="30" as="geometry" />
        </mxCell>
        <mxCell id="97N-wIbMj6tB275m0_wd-27" value="Telegram-bot" style="text;strokeColor=none;fillColor=none;align=left;verticalAlign=middle;spacingLeft=4;spacingRight=4;overflow=hidden;points=[[0,0.5],[1,0.5]];portConstraint=eastwest;rotatable=0;whiteSpace=wrap;html=1;" parent="1" vertex="1">
          <mxGeometry x="520" y="750" width="90" height="30" as="geometry" />
        </mxCell>
        <mxCell id="97N-wIbMj6tB275m0_wd-28" value="" style="endArrow=classic;html=1;rounded=0;" parent="1" edge="1">
          <mxGeometry width="50" height="50" relative="1" as="geometry">
            <mxPoint x="140" y="630" as="sourcePoint" />
            <mxPoint x="230" y="570" as="targetPoint" />
          </mxGeometry>
        </mxCell>
        <mxCell id="97N-wIbMj6tB275m0_wd-29" value="" style="endArrow=classic;html=1;rounded=0;" parent="1" edge="1">
          <mxGeometry width="50" height="50" relative="1" as="geometry">
            <mxPoint x="410" y="560" as="sourcePoint" />
            <mxPoint x="500" y="620" as="targetPoint" />
          </mxGeometry>
        </mxCell>
        <mxCell id="97N-wIbMj6tB275m0_wd-30" value="" style="endArrow=classic;html=1;rounded=0;" parent="1" edge="1">
          <mxGeometry width="50" height="50" relative="1" as="geometry">
            <mxPoint x="490" y="635" as="sourcePoint" />
            <mxPoint x="400" y="580" as="targetPoint" />
          </mxGeometry>
        </mxCell>
        <mxCell id="97N-wIbMj6tB275m0_wd-31" value="" style="endArrow=classic;html=1;rounded=0;" parent="1" edge="1">
          <mxGeometry width="50" height="50" relative="1" as="geometry">
            <mxPoint x="240" y="590" as="sourcePoint" />
            <mxPoint x="180" y="630" as="targetPoint" />
          </mxGeometry>
        </mxCell>
        <mxCell id="97N-wIbMj6tB275m0_wd-32" value="Каfka" style="whiteSpace=wrap;html=1;aspect=fixed;" parent="1" vertex="1">
          <mxGeometry x="470" y="490" width="80" height="80" as="geometry" />
        </mxCell>
        <mxCell id="97N-wIbMj6tB275m0_wd-33" value="" style="endArrow=classic;html=1;rounded=0;" parent="1" edge="1">
          <mxGeometry width="50" height="50" relative="1" as="geometry">
            <mxPoint x="380" y="520" as="sourcePoint" />
            <mxPoint x="460" y="520" as="targetPoint" />
          </mxGeometry>
        </mxCell>
        <mxCell id="97N-wIbMj6tB275m0_wd-34" value="" style="endArrow=classic;html=1;rounded=0;exitX=0;exitY=0.75;exitDx=0;exitDy=0;" parent="1" source="97N-wIbMj6tB275m0_wd-32" edge="1">
          <mxGeometry width="50" height="50" relative="1" as="geometry">
            <mxPoint x="430" y="570" as="sourcePoint" />
            <mxPoint x="380" y="550" as="targetPoint" />
          </mxGeometry>
        </mxCell>
        <mxCell id="97N-wIbMj6tB275m0_wd-36" value="OpenFeign" style="whiteSpace=wrap;html=1;aspect=fixed;" parent="1" vertex="1">
          <mxGeometry x="80" y="490" width="80" height="80" as="geometry" />
        </mxCell>
        <mxCell id="97N-wIbMj6tB275m0_wd-37" value="" style="endArrow=classic;html=1;rounded=0;exitX=0;exitY=0.75;exitDx=0;exitDy=0;" parent="1" edge="1">
          <mxGeometry width="50" height="50" relative="1" as="geometry">
            <mxPoint x="250" y="549.41" as="sourcePoint" />
            <mxPoint x="160" y="549.41" as="targetPoint" />
          </mxGeometry>
        </mxCell>
        <mxCell id="97N-wIbMj6tB275m0_wd-38" value="" style="endArrow=classic;html=1;rounded=0;" parent="1" edge="1">
          <mxGeometry width="50" height="50" relative="1" as="geometry">
            <mxPoint x="160" y="529.41" as="sourcePoint" />
            <mxPoint x="240" y="529.41" as="targetPoint" />
          </mxGeometry>
        </mxCell>
      </root>
    </mxGraphModel>
  </diagram>
</mxfile>
